<?xml version="1.0" encoding="UTF-8"?>
<svg xmlns="http://www.w3.org/2000/svg" xmlns:xlink="http://www.w3.org/1999/xlink" width="35px" height="32px" viewBox="0 0 35 32" version="1.1">
<g id="surface1">
<path style=" stroke:none;fill-rule:nonzero;fill:rgb(0%,0%,0%);fill-opacity:1;" d="M 7.816406 11.824219 C 7.183594 11.84375 6.675781 12.363281 6.675781 13.003906 C 6.773438 13.589844 7.277344 14.019531 7.867188 14.019531 C 8.457031 14.019531 8.957031 13.589844 9.054688 13.003906 C 9.054688 12.679688 8.921875 12.371094 8.6875 12.148438 C 8.453125 11.921875 8.140625 11.808594 7.816406 11.824219 Z M 7.816406 11.824219 "/>
<path style=" stroke:none;fill-rule:nonzero;fill:rgb(0%,0%,0%);fill-opacity:1;" d="M 19.511719 11.695312 C 18.8125 11.695312 18.246094 12.269531 18.246094 12.972656 C 18.246094 13.675781 18.8125 14.246094 19.511719 14.246094 C 20.210938 14.246094 20.78125 13.675781 20.78125 12.972656 C 20.78125 12.269531 20.210938 11.695312 19.511719 11.695312 Z M 19.511719 11.695312 "/>
<path style=" stroke:none;fill-rule:nonzero;fill:rgb(0%,0%,0%);fill-opacity:1;" d="M 30.066406 0 L 4.933594 0 C 2.394531 0 0.339844 2.070312 0.339844 4.621094 L 0.339844 19.632812 C 0.339844 20.855469 0.824219 22.027344 1.6875 22.890625 C 2.550781 23.75 3.71875 24.230469 4.933594 24.222656 L 13.808594 24.222656 L 16.976562 31.394531 C 16.976562 31.394531 17.199219 32 17.707031 32 C 18.214844 32 18.402344 31.394531 18.402344 31.394531 L 21.253906 24.222656 L 30.066406 24.222656 C 31.28125 24.230469 32.449219 23.75 33.3125 22.890625 C 34.175781 22.027344 34.660156 20.855469 34.660156 19.632812 L 34.660156 4.621094 C 34.660156 2.070312 32.605469 0 30.066406 0 Z M 11.050781 13.257812 C 11.035156 14.820312 9.78125 16.078125 8.230469 16.09375 C 7.636719 16.058594 7.082031 15.796875 6.675781 15.363281 L 6.675781 15.9375 L 4.523438 15.9375 L 4.523438 7.332031 C 4.523438 7.332031 6.675781 7.332031 6.675781 7.332031 L 6.675781 10.519531 C 7.152344 9.6875 8.546875 9.722656 8.546875 9.722656 C 9.367188 9.820312 10.109375 10.257812 10.59375 10.929688 C 11.082031 11.601562 11.269531 12.445312 11.113281 13.257812 Z M 14.664062 10.070312 L 14.664062 15.9375 L 12.730469 15.9375 L 12.730469 10.105469 C 12.730469 9.308594 11.746094 9.082031 11.746094 9.082031 L 11.746094 7.042969 C 12.558594 6.976562 13.355469 7.269531 13.929688 7.847656 C 14.503906 8.421875 14.796875 9.226562 14.726562 10.039062 Z M 19.449219 16.128906 C 18.597656 16.152344 17.773438 15.832031 17.15625 15.238281 C 16.542969 14.644531 16.191406 13.828125 16.183594 12.972656 C 16.183594 12.085938 16.546875 11.242188 17.191406 10.636719 C 17.832031 10.03125 18.699219 9.722656 19.574219 9.785156 C 20.449219 9.730469 21.304688 10.042969 21.941406 10.648438 C 22.578125 11.25 22.9375 12.09375 22.933594 12.972656 C 22.921875 13.851562 22.542969 14.6875 21.894531 15.277344 C 21.246094 15.871094 20.386719 16.167969 19.511719 16.09375 Z M 30.445312 16.128906 C 30.480469 16.914062 30.191406 17.683594 29.644531 18.25 C 29.101562 18.816406 28.347656 19.132812 27.5625 19.125 L 26.644531 19.125 L 26.644531 17.117188 L 27.183594 17.117188 C 27.183594 17.117188 28.449219 17.117188 28.417969 15.296875 C 28.417969 15.296875 28.195312 16.09375 26.421875 16.09375 C 25.023438 16.011719 23.933594 14.855469 23.917969 13.449219 L 23.917969 12.527344 C 23.984375 11.015625 25.203125 9.816406 26.707031 9.785156 C 27.386719 9.726562 28.050781 10.015625 28.480469 10.550781 L 28.480469 9.945312 L 30.507812 9.945312 Z M 30.445312 16.128906 "/>
<path style=" stroke:none;fill-rule:nonzero;fill:rgb(0%,0%,0%);fill-opacity:1;" d="M 27.308594 11.730469 C 26.625 11.730469 26.074219 12.285156 26.074219 12.972656 C 26.074219 13.660156 26.625 14.214844 27.308594 14.214844 C 27.992188 14.214844 28.542969 13.660156 28.542969 12.972656 C 28.542969 12.285156 27.992188 11.730469 27.308594 11.730469 Z M 27.308594 11.730469 "/>
</g>
</svg>
