<svg xmlns="http://www.w3.org/2000/svg"  viewBox="0 0 24 24" width="48px" height="48px"><path d="M 12 3 C 9.1344114 3 6.9515112 3.2003333 5.421875 3.4179688 A 1.0001 1.0001 0 0 0 5.4199219 3.4179688 C 3.4563429 3.6986695 2 5.4023262 2 7.3789062 L 2 16.623047 C 2 18.599627 3.4578381 20.302595 5.421875 20.582031 C 6.9515112 20.799667 9.1344114 21 12 21 C 14.865589 21 17.048489 20.799667 18.578125 20.582031 A 1.0001 1.0001 0 0 0 18.580078 20.582031 C 20.543607 20.30133 22 18.597674 22 16.621094 L 22 7.3789062 C 22 5.4029625 20.543156 3.7001844 18.580078 3.4199219 L 18.578125 3.4199219 C 17.047987 3.2012427 14.864741 3 12 3 z M 12 5 C 14.772411 5 16.861126 5.1931922 18.296875 5.3984375 C 19.284838 5.5390014 20 6.3734865 20 7.3789062 L 20 16.621094 C 20 17.626514 19.285299 18.460263 18.296875 18.601562 C 16.860511 18.805928 14.772411 19 12 19 C 9.2275886 19 7.1394888 18.805927 5.703125 18.601562 C 4.7151619 18.460999 4 17.628467 4 16.623047 L 4 7.3789062 C 4 6.3734864 4.7147009 5.5397366 5.703125 5.3984375 C 7.1394888 5.1940729 9.2275886 5 12 5 z M 10.917969 8.8125 C 10.439 8.8169531 10 9.2012813 10 9.7382812 L 10 14.263672 C 10 14.979672 10.778531 15.423594 11.394531 15.058594 L 15.214844 12.796875 C 15.818844 12.437875 15.818844 11.563078 15.214844 11.205078 L 11.394531 8.9433594 C 11.240531 8.8521094 11.077625 8.8110156 10.917969 8.8125 z"/></svg>