<?xml version="1.0" encoding="UTF-8"?>
<svg xmlns="http://www.w3.org/2000/svg" xmlns:xlink="http://www.w3.org/1999/xlink" width="32px" height="32px" viewBox="0 0 32 32" version="1.1">
<g id="surface1">
<path style=" stroke:none;fill-rule:nonzero;fill:rgb(0%,0%,0%);fill-opacity:1;" d="M 27.488281 26.0625 L 27.488281 13.613281 L 24.800781 13.613281 C 24.988281 14.375 25.1875 15.335938 25.1875 16.101562 C 25.1875 17.636719 24.800781 19.164062 24.039062 20.511719 C 23.273438 21.851562 22.125 23 20.773438 23.773438 C 19.4375 24.539062 17.898438 24.925781 16.175781 24.925781 C 13.6875 24.925781 11.574219 23.960938 9.664062 22.238281 C 7.9375 20.511719 6.976562 18.398438 6.976562 15.914062 C 6.976562 14.949219 7.164062 14.1875 7.363281 13.425781 L 4.5 13.425781 L 4.5 25.875 C 4.5 26.636719 4.886719 27.023438 5.648438 27.023438 L 26.148438 27.023438 C 27.113281 27.011719 27.488281 26.4375 27.488281 26.0625 Z M 21.9375 15.898438 C 21.9375 14.363281 21.363281 13.023438 20.210938 11.875 C 19.0625 10.726562 17.726562 10.148438 16 10.148438 C 14.460938 10.148438 12.9375 10.726562 11.789062 11.875 C 10.636719 13.023438 10.0625 14.363281 10.0625 15.898438 C 10.0625 17.4375 10.636719 18.773438 11.789062 19.925781 C 12.9375 21.074219 14.273438 21.648438 16 21.648438 C 17.726562 21.648438 19.0625 21.074219 20.210938 19.925781 C 21.363281 18.773438 21.9375 17.4375 21.9375 15.898438 Z M 27.488281 8.238281 L 27.488281 5.5625 C 27.488281 5.175781 27.300781 4.988281 27.101562 4.800781 C 26.914062 4.613281 26.710938 4.414062 26.335938 4.414062 L 23.648438 4.414062 C 23.261719 4.414062 23.074219 4.601562 22.886719 4.800781 C 22.699219 4.988281 22.5 5.1875 22.5 5.5625 L 22.5 8.25 C 22.5 8.636719 22.6875 8.824219 22.886719 9.011719 C 23.074219 9.199219 23.273438 9.398438 23.648438 9.398438 L 26.335938 9.398438 C 26.726562 9.398438 27.101562 9.210938 27.300781 9.011719 C 27.488281 8.8125 27.488281 8.625 27.488281 8.238281 Z M 30.75 4.988281 L 30.75 27.011719 C 30.75 27.976562 30.363281 28.925781 29.601562 29.699219 C 28.835938 30.476562 27.875 30.851562 26.914062 30.851562 L 5.085938 30.851562 C 4.125 30.851562 3.175781 30.460938 2.398438 29.699219 C 1.636719 28.9375 1.25 27.976562 1.25 27.011719 L 1.25 4.988281 C 1.25 4.023438 1.636719 3.074219 2.398438 2.300781 C 3.164062 1.539062 4.125 1.148438 5.085938 1.148438 L 27.113281 1.148438 C 28.074219 1.148438 29.023438 1.539062 29.800781 2.300781 C 30.363281 3.074219 30.75 3.835938 30.75 4.988281 Z M 30.75 4.988281 "/>
</g>
</svg>
