<?xml version="1.0" encoding="UTF-8"?>
<svg xmlns="http://www.w3.org/2000/svg" xmlns:xlink="http://www.w3.org/1999/xlink" width="32px" height="32px" viewBox="0 0 32 32" version="1.1">
<g id="surface1">
<path style=" stroke:none;fill-rule:nonzero;fill:rgb(0%,0%,0%);fill-opacity:1;" d="M 25.226562 4.9375 L 6.789062 4.9375 C 3.738281 4.9375 1.25 7.425781 1.25 10.476562 L 1.25 21.539062 C 1.25 24.574219 3.738281 27.074219 6.789062 27.074219 L 25.226562 27.074219 C 28.261719 27.074219 30.761719 24.585938 30.761719 21.539062 L 30.761719 10.476562 C 30.75 7.425781 28.261719 4.9375 25.226562 4.9375 Z M 28.914062 21.539062 C 28.914062 22.511719 28.523438 23.4375 27.824219 24.136719 C 27.125 24.835938 26.199219 25.226562 25.226562 25.226562 L 6.789062 25.226562 C 5.8125 25.226562 4.886719 24.835938 4.1875 24.136719 C 3.488281 23.4375 3.101562 22.511719 3.101562 21.539062 L 3.101562 10.476562 C 3.101562 9.5 3.488281 8.574219 4.1875 7.875 C 4.886719 7.175781 5.8125 6.789062 6.789062 6.789062 L 25.226562 6.789062 C 26.199219 6.789062 27.125 7.175781 27.824219 7.875 C 28.523438 8.574219 28.914062 9.5 28.914062 10.476562 Z M 12.3125 23.375 L 21.539062 16 L 12.3125 8.625 Z M 12.3125 23.375 "/>
</g>
</svg>
