<?xml version="1.0" encoding="UTF-8"?>
<!DOCTYPE svg PUBLIC "-//W3C//DTD SVG 1.1//EN" "http://www.w3.org/Graphics/SVG/1.1/DTD/svg11.dtd">
<!-- Creator: CorelDRAW -->
<svg xmlns="http://www.w3.org/2000/svg" xml:space="preserve" width="51.6048mm" height="8.3992mm" version="1.1" style="shape-rendering:geometricPrecision; text-rendering:geometricPrecision; image-rendering:optimizeQuality; fill-rule:evenodd; clip-rule:evenodd"
viewBox="0 0 5160.48 839.92"
 xmlns:xlink="http://www.w3.org/1999/xlink"
 xmlns:xodm="http://www.corel.com/coreldraw/odm/2003">
 <defs>
  <style type="text/css">
   <![CDATA[
    .fil0 {fill:#6440FB}
    .fil1 {fill:#332C2B;fill-rule:nonzero}
   ]]>
  </style>
 </defs>
 <g id="Layer_x0020_1">
  <metadata id="CorelCorpID_0Corel-Layer"/>
  <g id="_1715717959360">
   <polygon class="fil0" points="-1.62,3.87 684.16,3.87 684.16,843.79 458.36,791.09 458.36,167.69 102.74,167.69 102.74,791.09 -1.62,843.79 "/>
   <path class="fil0" d="M345.51 470.76c8,0 14.48,9.98 14.48,22.27 0,12.3 -6.48,22.27 -14.48,22.27 -8,0 -14.49,-9.97 -14.49,-22.27 0,-12.29 6.49,-22.27 14.49,-22.27zm-205.81 317.76l234.18 -92.15 0 -396.58 -234.18 -97.48 0 586.21z"/>
  </g>
  <path class="fil1" d="M3962.95 695.28l-9.86 -68.53c31.35,0 66.12,-0.3 104.25,-0.89 38.13,-0.57 77.35,-2.12 117.62,-4.64 40.26,-2.52 79.17,-6.68 116.74,-12.48l6.38 61.56c-38.73,7.74 -78.02,13.36 -117.9,16.83 -39.88,3.5 -78.32,5.73 -115.3,6.69 -36.97,0.97 -70.95,1.46 -101.93,1.46z"/>
  <polygon class="fil1" points="4320.14,259.11 4405.53,259.11 4405.53,802.71 4320.14,802.71 "/>
  <path class="fil1" d="M4124.43 367.7c-12.4,0 -23.62,2.43 -33.7,7.27 -10.06,4.84 -18.1,11.8 -24.1,20.9 -6,9.11 -9,20.43 -9,33.97 0,13.56 3,24.98 9,34.29 6,9.28 14.04,16.26 24.1,20.9 10.08,4.64 21.3,6.96 33.7,6.96 12.76,0 24.09,-2.32 33.97,-6.96 9.87,-4.64 17.81,-11.62 23.8,-20.9 6,-9.31 9.01,-20.73 9.01,-34.29 0,-13.54 -3.01,-24.86 -9.01,-33.97 -5.99,-9.1 -13.93,-16.06 -23.8,-20.9 -9.88,-4.84 -21.21,-7.27 -33.97,-7.27zm0 -73.17c28.64,0 54.3,5.81 76.94,17.42 22.66,11.62 40.57,27.59 53.73,47.92 13.16,20.32 19.74,43.65 19.74,69.97 0,25.96 -6.58,49.19 -19.74,69.7 -13.16,20.53 -31.07,36.58 -53.73,48.22 -22.64,11.6 -48.3,17.41 -76.94,17.41 -28.27,0 -53.74,-5.81 -76.39,-17.41 -22.65,-11.64 -40.65,-27.69 -54.01,-48.22 -13.36,-20.51 -20.03,-43.74 -20.03,-69.7 0,-26.32 6.67,-49.65 20.03,-69.97 13.36,-20.33 31.36,-36.3 54.01,-47.92 22.65,-11.61 48.12,-17.42 76.39,-17.42z"/>
  <polygon class="fil1" points="4545.55,588.24 4665.26,588.24 4665.26,715.33 5083.42,715.33 5083.42,811.26 4545.55,811.26 4545.55,746.49 4545.55,715.33 "/>
  <path class="fil1" d="M4953.06 184l-283.71 0 0 100.02 283.71 0 0 -100.02zm-401.78 -94.29l520.68 0 0 288.62 -520.68 0 0 -288.62z"/>
  <polygon class="fil1" points="4884.18,528.37 4884.18,649.73 4762.83,649.73 4762.83,528.37 4467.65,528.37 4467.65,432.44 5158.87,432.44 5158.87,528.37 "/>
  <polygon class="fil1" points="3406.93,54.45 3527.46,54.45 3527.46,121.68 3691.44,121.68 3691.44,216.8 3242.12,216.8 3242.12,121.68 3406.93,121.68 "/>
  <polygon class="fil1" points="3333.14,567.74 3846.42,567.74 3846.42,823.55 3725.88,823.55 3725.88,662.85 3333.14,662.85 "/>
  <polygon class="fil1" points="3846.42,252.05 3944.81,252.05 3944.81,350.46 3846.42,350.46 3846.42,539.04 3725.89,539.04 3725.89,59.37 3846.42,59.37 "/>
  <path class="fil1" d="M3467.59 326.67c-21.86,0 -39.61,4.09 -53.28,12.3 -13.66,8.2 -20.51,21.32 -20.51,39.35 0,16.95 6.85,29.66 20.51,38.14 13.67,8.46 31.42,12.71 53.28,12.71 21.33,0 38.83,-4.25 52.49,-12.71 13.67,-8.48 20.49,-21.19 20.49,-38.14 0,-18.03 -6.69,-31.15 -20.08,-39.35 -13.4,-8.21 -31.02,-12.3 -52.9,-12.3zm0 -90.2c36.64,0 69.17,6.02 97.58,18.05 28.44,12.02 50.71,28.7 66.83,50.01 16.13,21.32 24.19,45.93 24.19,73.79 0,27.89 -8.06,52.49 -24.19,73.81 -16.12,21.32 -38.39,37.85 -66.83,49.61 -28.41,11.74 -60.94,17.63 -97.58,17.63 -37.15,0 -69.96,-5.89 -98.38,-17.63 -28.42,-11.76 -50.71,-28.29 -66.82,-49.61 -16.13,-21.32 -24.2,-45.92 -24.2,-73.81 0,-27.86 8.07,-52.47 24.2,-73.79 16.11,-21.31 38.4,-37.99 66.82,-50.01 28.42,-12.03 61.23,-18.05 98.38,-18.05z"/>
  <polygon class="fil1" points="2929.44,567.74 2929.44,823.55 2808.9,823.55 2808.9,567.74 2526.85,567.74 2526.85,470.16 3218.06,470.16 3218.06,567.74 "/>
  <path class="fil1" d="M2831.04 79.87l82.81 0 22.97 0 0 33.62c0,16.94 3.14,34.16 9.43,51.66 6.28,17.49 15.84,34.7 28.7,51.65 12.83,16.95 29.51,32.66 50,47.14 20.5,14.5 44.84,27.06 72.99,37.73 28.14,10.64 60.81,18.18 97.97,22.55l-46.73 96.74c-42.09,-6.01 -80.08,-15.72 -113.96,-29.1 -33.9,-13.4 -63.56,-29.94 -88.97,-49.61 -25.42,-19.68 -46.75,-41.55 -63.96,-65.61 -3.41,-4.75 -6.65,-9.57 -9.71,-14.47 -3.02,4.9 -6.21,9.71 -9.57,14.47 -16.92,24.06 -38.12,45.93 -63.53,65.61 -25.43,19.67 -55.07,36.21 -88.97,49.61 -33.89,13.38 -72.15,23.09 -114.79,29.1l-46.73 -96.74c37.16,-4.37 69.96,-11.91 98.37,-22.55 28.44,-10.67 52.76,-23.11 72.98,-37.32 20.24,-14.2 36.9,-29.78 50.04,-46.73 13.1,-16.94 22.67,-34.29 28.68,-52.07 6.01,-17.76 9.03,-35.12 9.03,-52.06l0 -33.62 22.95 0z"/>
  <path class="fil1" d="M1798.12 77.4l121.34 0 0 104.14 150.88 0 0 94.3 -150.88 0 0 18.02c0,26.25 3.43,53.32 10.26,81.19 6.83,27.88 17.49,54.8 31.98,80.76 14.49,25.97 33.35,49.61 56.58,70.94 23.23,21.3 50.96,38.79 83.22,52.47l-63.13 92.65c-36.63,-15.3 -68.33,-36.08 -95.11,-62.32 -26.8,-26.23 -48.93,-56.31 -66.43,-90.19 -5.85,-11.35 -11.2,-22.94 -16.04,-34.81 -5.41,14.45 -11.55,28.5 -18.38,42.2 -17.49,34.97 -39.64,66 -66.42,93.06 -26.79,27.06 -58.5,48.5 -95.13,64.36l-63.95 -92.65c32.26,-14.76 59.86,-33.21 82.82,-55.35 22.96,-22.13 41.68,-46.61 56.17,-73.39 14.47,-26.78 25.14,-54.67 31.96,-83.63 6.85,-28.97 10.26,-57.4 10.26,-85.29l0 -18.02 -154.15 0 0 -94.3 154.15 0 0 -104.14z"/>
  <polygon class="fil1" points="2133.49,58.55 2254.83,58.55 2254.83,822.74 2133.49,822.74 "/>
  <path class="fil1" d="M919.67 146.28l282.07 0 0 96.76 -162.35 0 0 312.54c7.42,-0.15 14.79,-0.33 22.14,-0.55 28.42,-0.83 56.71,-2.6 84.87,-5.32 28.15,-2.75 57.24,-6.85 87.32,-12.31l9.02 97.57c-30.61,6.02 -60.55,10.53 -89.79,13.53 -29.25,3 -58.49,4.92 -87.73,5.75 -29.24,0.81 -59.45,1.22 -90.6,1.22l-54.95 0 0 -51.65 0 -47.56 0 -409.98z"/>
  <polygon class="fil1" points="1273.89,70.85 1385.4,70.85 1385.4,349.63 1443.62,349.63 1443.62,58.55 1558.42,58.55 1558.42,822.74 1443.62,822.74 1443.62,446.39 1385.4,446.39 1385.4,787.48 1273.89,787.48 "/>
 </g>
</svg>
